HIERARCHY
ROOT Hips
{
  OFFSET 73.9375 100.842 33.3016
  CHANNELS 6 Xposition Yposition Zposition Zrotation Xrotation Yrotation
  JOINT RightUpLeg
  {
    OFFSET -8.9458 -8.66707 0.101652
    CHANNELS 3 Zrotation Xrotation Yrotation
    JOINT RightLeg
    {
      OFFSET 0 -44.4227 1.3727
      CHANNELS 3 Zrotation Xrotation Yrotation
      JOINT RightFoot
      {
        OFFSET 0.253549 -42.0924 -1.46059
        CHANNELS 3 Zrotation Xrotation Yrotation
        JOINT RightToes
        {
          OFFSET 0.04 -4.41509 8.4991
          CHANNELS 3 Zrotation Xrotation Yrotation
          End Site
          {
            OFFSET -0.08 -0.137448 9.77979
          }
        }
      }
    }
  }
  JOINT Spine
  {
    OFFSET 0 11.8905 0
    CHANNELS 3 Zrotation Xrotation Yrotation
    JOINT Spine1
    {
      OFFSET 0 25.6574 0.127663
      CHANNELS 3 Zrotation Xrotation Yrotation
      JOINT HEad
      {
        OFFSET 0 8.73416 0.011341
        CHANNELS 3 Zrotation Xrotation Yrotation
        End Site
        {
          OFFSET -0.29 12.7742 2.51395
        }
      }
      JOINT LeftShoulder1
      {
        OFFSET 8.99 -0.362252 -0.22
        CHANNELS 3 Zrotation Xrotation Yrotation
        JOINT LeftArm
        {
          OFFSET 10.2827 -0.00338 0.322123
          CHANNELS 3 Zrotation Xrotation Yrotation
          JOINT LeftForeArm
          {
            OFFSET 32.7669 0.099144 -1.42434
            CHANNELS 3 Zrotation Xrotation Yrotation
            JOINT LeftHand
            {
              OFFSET 27.5643 0.085362 1.02216
              CHANNELS 3 Zrotation Xrotation Yrotation
              End Site
              {
                OFFSET 16.7443 -0.6 1.50291
              }
            }
          }
        }
      }
      JOINT RightShoulder
      {
        OFFSET -8.99 -0.362252 -0.22
        CHANNELS 3 Zrotation Xrotation Yrotation
        JOINT RightArm
        {
          OFFSET -10.2827 -0.00338 0.322123
          CHANNELS 3 Zrotation Xrotation Yrotation
          JOINT RightForeArm
          {
            OFFSET -32.8971 0.099144 -1.42434
            CHANNELS 3 Zrotation Xrotation Yrotation
            JOINT RightHand
            {
              OFFSET -27.4921 0.085362 1.02216
              CHANNELS 3 Zrotation Xrotation Yrotation
              End Site
              {
                OFFSET -16.6312 -0.6 1.50291
              }
            }
          }
        }
      }
    }
  }
  JOINT LeftUpLeg
  {
    OFFSET 8.9458 -8.66707 0.101652
    CHANNELS 3 Zrotation Xrotation Yrotation
    JOINT LeftLeg
    {
      OFFSET 0 -44.4227 1.3727
      CHANNELS 3 Zrotation Xrotation Yrotation
      JOINT LeftFoot
      {
        OFFSET -0.253549 -42.0924 -1.46059
        CHANNELS 3 Zrotation Xrotation Yrotation
        JOINT LeftToes
        {
          OFFSET -0.04 -4.41509 8.4991
          CHANNELS 3 Zrotation Xrotation Yrotation
          End Site
          {
            OFFSET 0.08 -0.047448 9.77979
          }
        }
      }
    }
  }
}
MOTION
Frames:	10
Frame Time:	0.0166667
75.1801 99.7591 48.5513 -3.28503 -0.0658078 -179.424 -3.64611 -15.1458 0.252709 3.20686 53.4885 -10.2398 11.9911 -4.6515 0.0687005 0.0462048 0.000533964 0.662642 -1.75182 4.8052 -0.365612 -4.68739 13.1507 0.692583 1.35468 0.551784 2.30974 3.97569e-016 0 3.97569e-016 -98.8172 -39.8495 -18.9964 -12.6194 14.0412 -14.3095 0.368473 9.90896 -0.00117926 -3.64781 0.132422 -0.981491 99.8065 -29.5831 18.2473 17.3571 16.605 27.1831 -0.369625 9.91382 0.00119886 -4.87756 -27.7388 1.19878 -4.73197 38.8506 16.8476 -11.6104 -2.17021 0.104685 -8.79423e-011 9.51892e-011 -1.61668e-011 
74.9611 99.4725 47.7511 -3.7293 -0.15242 -179.333 -4.24501 -17.3308 -0.329499 2.23908 57.008 -9.52365 12.2217 -1.74073 -0.233363 -1.00327 2.22188 1.65024 -2.61019 4.87561 -0.304372 -4.812 13.1437 0.677817 1.41189 0.642305 2.26146 -7.45443e-016 6.36111e-015 3.97569e-016 -99.6265 -38.5452 -20.3163 -12.4508 13.9802 -13.7447 0.368473 9.90896 -0.00117926 -3.48376 0.135825 -0.985158 99.8252 -30.1643 17.5445 17.3091 16.5902 27.2274 -0.369625 9.91382 0.00119886 -5.4228 -27.7854 1.29508 -4.9785 39.7521 16.8311 -11.6237 -2.65248 0.0623514 -0.138917 -1.36626 -0.0978195 
74.7524 99.1907 46.9501 -4.16688 -0.205336 -179.261 -4.79689 -19.437 -0.727825 1.17869 60.3499 -8.96781 12.3869 0.56744 -0.471471 -1.56171 3.91599 2.0273 -3.46028 4.93699 -0.242121 -4.92845 13.2241 0.665735 1.42235 0.657845 2.23152 -8.94531e-016 3.18055e-015 -1.98785e-016 -100.349 -37.1699 -21.5925 -12.3479 13.9419 -13.3334 0.368473 9.90896 -0.00117926 -3.3612 0.134581 -1.05724 99.8636 -30.6263 16.907 17.2796 16.5754 27.2358 -0.369625 9.91382 0.00119886 -5.94009 -27.7924 1.43108 -5.15525 40.7136 17.0552 -11.6625 -3.34121 -0.000932738 0.067723 -2.0781 -1.06785 
74.5719 98.9029 46.1489 -4.60316 -0.150064 -179.272 -5.08175 -21.3486 -0.57162 0.226829 63.3547 -9.03817 12.2836 1.17278 -0.529839 -0.388533 4.19472 0.450512 -4.32447 4.9773 -0.169782 -5.02884 13.5877 0.662797 1.2853 0.433365 2.27596 -0 0 3.97569e-016 -100.967 -35.6344 -22.811 -12.4304 13.9739 -13.3824 0.368473 9.90896 -0.00117926 -3.38859 0.118834 -1.33916 100.072 -30.7531 16.5347 17.2685 16.5441 27.0977 -0.369625 9.91382 0.00119886 -6.37626 -27.7109 1.70681 -5.11579 41.9384 18.3714 -11.8602 -4.72248 -0.136035 1.85274 -0.557074 -5.78268 
74.4073 98.6606 45.3432 -4.99695 -0.075311 -179.255 -5.23476 -23.1087 -0.134026 -0.361675 65.7717 -9.84473 12.0686 0.966007 -0.503143 1.21614 3.62201 -1.52289 -5.10167 4.99649 -0.110598 -5.10414 13.9957 0.660401 1.11576 0.164049 2.30008 7.95139e-016 6.36111e-015 5.96354e-016 -101.453 -33.951 -23.9968 -12.6116 14.0351 -13.5829 0.368473 9.90896 -0.00117926 -3.4069 0.0995655 -1.68033 100.172 -30.7181 16.1291 17.3489 16.5455 27.0019 -0.369625 9.91382 0.00119886 -6.78322 -27.5284 1.97903 -5.15588 43.0131 19.2663 -11.9288 -6.16381 -0.275187 3.42009 1.06196 -9.10841 
74.2483 98.5287 44.5259 -5.31857 -0.0485848 -179.107 -5.3853 -24.7151 0.461602 -0.29941 67.229 -11.8289 11.8483 0.448133 -0.444929 2.16999 2.36082 -2.55126 -5.69336 4.98939 -0.0885617 -5.15184 14.2506 0.652642 0.984789 0.0232362 2.2347 -9.93923e-017 -3.18055e-015 3.97569e-016 -101.743 -32.0846 -25.1828 -12.8564 14.0965 -13.6829 0.368473 9.90896 -0.00117926 -3.25245 0.0890596 -1.91316 99.7756 -30.5824 15.3372 17.6693 16.6621 27.2121 -0.369625 9.91382 0.00119886 -7.23282 -27.1932 2.10199 -5.45754 43.5527 17.6775 -11.3844 -7.16447 -0.357074 1.70473 0.888684 -4.46316 
74.1064 98.455 43.7056 -5.53916 -0.0589941 -178.863 -5.4552 -26.1811 1.10083 0.234226 67.8701 -14.2107 11.6298 -0.312219 -0.363507 2.95741 0.756147 -3.32736 -6.11405 4.95931 -0.0923481 -5.14422 14.4234 0.637651 0.918999 -0.0887561 2.05911 -6.95746e-016 3.18055e-015 3.97569e-016 -101.921 -30.0922 -26.3347 -13.1286 14.1678 -13.8192 0.368473 9.90896 -0.00117926 -3.04672 0.0735564 -2.23007 99.3423 -30.4527 14.5155 18.0032 16.7774 27.3944 -0.369625 9.91382 0.00119886 -7.60846 -26.778 2.18511 -5.66517 43.8017 15.7028 -10.9128 -7.81549 -0.40999 -0.338759 -0.0677257 0.952709 
73.9915 98.3951 42.8885 -5.59815 -0.131226 -178.479 -5.44736 -27.5392 1.52358 0.834152 67.7718 -15.9647 11.4755 -1.05777 -0.287303 3.80534 -0.931978 -4.16182 -6.32406 4.90478 -0.120205 -5.03233 14.5188 0.608322 1.01589 -0.229669 1.66115 -4.96962e-016 3.18055e-015 -0 -102.073 -27.9467 -27.4288 -13.3565 14.2478 -14.0586 0.368473 9.90896 -0.00117926 -2.84337 0.0375221 -2.86217 99.2142 -30.4796 13.9195 18.1596 16.7921 27.2607 -0.369625 9.91382 0.00119886 -7.80315 -26.3528 2.2626 -5.48582 43.9572 15.2427 -11.2671 -7.89623 -0.435224 -0.424685 -1.61115 0.684941 
73.8977 98.3901 42.0733 -5.55804 -0.22598 -178.096 -5.33557 -28.7408 2.00588 1.48795 66.9182 -17.3992 11.3195 -1.85341 -0.209172 4.49102 -2.29423 -4.86318 -6.38779 4.83495 -0.167377 -4.87747 14.5384 0.574525 1.13196 -0.35201 1.24611 -1.68967e-015 -3.18055e-015 3.97569e-016 -102.157 -25.862 -28.4834 -13.6105 14.3394 -14.3597 0.368473 9.90896 -0.00117926 -2.68426 -0.0013655 -3.52593 99.3143 -30.6227 13.4784 18.1891 16.7429 26.9342 -0.369625 9.91382 0.00119886 -7.86236 -25.8734 2.41313 -5.16935 43.9861 15.0564 -11.7679 -7.84094 -0.452718 -0.132677 -3.11327 -0.919433 
73.8204 98.4799 41.2551 -5.46555 -0.30717 -177.883 -5.03649 -29.7339 2.82258 2.2 65.2851 -18.5774 11.1017 -2.8 -0.120529 4.88257 -2.54239 -5.35868 -6.34987 4.75836 -0.230104 -4.72709 14.4622 0.543804 1.11736 -0.392194 1.01476 -1.98785e-016 6.36111e-015 3.97569e-016 -102.189 -24.0975 -29.515 -13.957 14.4403 -14.6609 0.368473 9.90896 -0.00117926 -2.69457 -0.0286758 -3.98433 99.7996 -30.9226 13.2487 18.0324 16.6125 26.3976 -0.369625 9.91382 0.00119886 -7.7793 -25.3024 2.8244 -4.82978 43.8979 14.3359 -11.9028 -8.10018 -0.489399 -0.0831395 -3.6766 -1.34536 
